<?xml version="1.0" encoding="UTF-8" standalone="no"?>
<!-- Created with Inkscape (http://www.inkscape.org/) -->

<svg
   xmlns:dc="http://purl.org/dc/elements/1.1/"
   xmlns:cc="http://creativecommons.org/ns#"
   xmlns:rdf="http://www.w3.org/1999/02/22-rdf-syntax-ns#"
   xmlns:svg="http://www.w3.org/2000/svg"
   xmlns="http://www.w3.org/2000/svg"
   xmlns:sodipodi="http://sodipodi.sourceforge.net/DTD/sodipodi-0.dtd"
   xmlns:inkscape="http://www.inkscape.org/namespaces/inkscape"
   width="3000"
   height="474.435"
   viewBox="0 0 3000 474.435"
   id="svg7420"
   version="1.1"
   inkscape:version="0.91 r13725"
   sodipodi:docname="falabella.svg">
  <title
     id="title8406">Sodimac</title>
  <defs
     id="defs7422">
    <clipPath
       id="clipPath5226"
       clipPathUnits="userSpaceOnUse">
      <path
         inkscape:connector-curvature="0"
         id="path5228"
         d="m 0,0 609.449,0 0,793.701 L 0,793.701 0,0 Z" />
    </clipPath>
    <clipPath
       id="clipPath5202"
       clipPathUnits="userSpaceOnUse">
      <path
         inkscape:connector-curvature="0"
         id="path5204"
         d="m 0,0 609.449,0 0,793.701 L 0,793.701 0,0 Z" />
    </clipPath>
  </defs>
  <sodipodi:namedview
     id="base"
     pagecolor="#ffffff"
     bordercolor="#666666"
     borderopacity="1.0"
     inkscape:pageopacity="0.0"
     inkscape:pageshadow="2"
     inkscape:zoom="0.21966667"
     inkscape:cx="1508.2853"
     inkscape:cy="237.2175"
     inkscape:document-units="px"
     inkscape:current-layer="layer1"
     showgrid="false"
     inkscape:showpageshadow="false"
     fit-margin-top="20"
     fit-margin-right="20"
     fit-margin-bottom="20"
     fit-margin-left="20"
     units="px"
     inkscape:window-width="1366"
     inkscape:window-height="715"
     inkscape:window-x="-8"
     inkscape:window-y="-8"
     inkscape:window-maximized="1" />
  <metadata
     id="metadata7425">
    <rdf:RDF>
      <cc:Work
         rdf:about="">
        <dc:format>image/svg+xml</dc:format>
        <dc:type
           rdf:resource="http://purl.org/dc/dcmitype/StillImage" />
        <dc:title>Sodimac</dc:title>
      </cc:Work>
    </rdf:RDF>
  </metadata>
  <g
     inkscape:label="Capa 1"
     inkscape:groupmode="layer"
     id="layer1"
     transform="translate(-1707.1416,387.7575)">
    <g
       id="g5194"
       transform="matrix(44.594025,0,0,-44.594025,3585.0748,-286.20842)" />
    <g
       id="g5198"
       transform="matrix(44.594025,0,0,-44.594025,-4387.1628,2363.5418)">
      <g
         id="g5200"
         clip-path="url(#clipPath5202)">
        <g
           id="g5206"
           transform="translate(203.487,54.4557)" />
        <g
           id="g5210"
           transform="translate(162.2538,53.7944)" />
        <g
           id="g5214"
           transform="translate(172.3605,54.6346)" />
      </g>
    </g>
    <g
       id="g5218"
       transform="matrix(44.594025,0,0,-44.594025,4139.8956,-79.648896)" />
    <g
       id="g8389">
      <g
         transform="matrix(44.594025,0,0,-44.594025,-4387.1628,2363.5418)"
         id="g5222">
        <g
           clip-path="url(#clipPath5226)"
           id="g5224">
          <g
             transform="translate(151.9566,54.491)"
             id="g5230">
            <path
               d="m 0,0 1.931,0.136 c 0.042,-0.351 0.13,-0.559 0.215,-0.679 0.149,-0.208 0.273,-0.323 0.577,-0.383 0.285,-0.055 0.612,0.022 0.752,0.188 C 3.728,-0.434 3.552,0.05 3.141,0.236 2.978,0.343 2.875,0.357 2.364,0.585 1.493,0.975 1.202,1.214 0.823,1.587 0.44,1.959 0.249,2.433 0.249,3.01 c 0,0.379 0.097,0.737 0.294,1.075 0.196,0.336 0.49,0.602 0.883,0.795 0.394,0.192 0.981,0.316 1.666,0.316 0.841,0 1.436,-0.203 1.877,-0.554 C 5.41,4.29 5.673,3.731 5.758,2.964 L 4.15,2.633 C 4.098,2.969 3.992,3.211 3.829,3.364 3.666,3.516 3.44,3.593 3.153,3.593 2.917,3.593 2.731,3.517 2.611,3.405 2.492,3.294 2.416,2.978 2.62,2.72 2.702,2.613 2.861,2.44 3.203,2.303 4.037,1.969 4.017,1.927 4.401,1.707 4.786,1.487 5.255,1.092 5.421,0.877 5.631,0.605 5.826,0.152 5.826,-0.251 5.826,-0.724 5.772,-0.886 5.539,-1.285 5.306,-1.685 5.059,-1.95 4.64,-2.156 4.221,-2.362 3.694,-2.567 3.056,-2.567 1.937,-2.567 1.163,-2.224 0.732,-1.741 0.301,-1.257 0.057,-0.744 0,0 m 39.258667,0.29640024 1.121,2.85199996 1.146,-2.85199996 -2.267,0 z m 2.395,4.71099996 -2.522,0 -3.285,-7.436 2.317,0 0.51,1.425 3.361,0 0.561,-1.398 2.343,0 -3.285,7.409 z M 20.4039,0.1436 c -0.153,-0.433 -0.751,-1.085 -1.64,-1.085 l -1.348,0 0,4.447 0.996,0 c 0.744,0 1.552,-0.376 1.852,-0.982 0.186,-0.401 0.472,-1.311 0.14,-2.38 m 1.77,3.259 c -0.701,1.018 -2.253,1.604 -3.488,1.604 l -3.515,0 0,-7.486 4.1,0 c 2.075,0 2.84,1.247 3.145,1.82 0.879,1.72 0.191,3.387 -0.242,4.062 M 10.2972,-0.6966 c -1.112,0 -2.012,0.872 -2.012,1.948 0,1.075 0.9,1.947 2.012,1.947 1.111,0 2.011,-0.872 2.011,-1.947 0,-1.076 -0.9,-1.948 -2.011,-1.948 m 0.013,5.831 c -2.356,0 -4.266,-1.728 -4.266,-3.859 0,-2.129 1.91,-3.856 4.266,-3.856 2.355,0 4.265,1.727 4.265,3.856 0,2.131 -1.91,3.859 -4.265,3.859 m 41.2202,-5.1697 0,-1.935 c -0.84,-0.394 -2.331,-0.589 -3.034,-0.589 -0.853,0 -1.499,0.174 -2.04,0.408 -0.54,0.234 -1.057,0.585 -1.449,1.172 -0.392,0.586 -0.59,1.338 -0.59,2.254 0,1.221 0.433,2.08 1.123,2.737 0.69,0.654 1.716,1.043 2.979,1.043 0.988,0 1.955,-0.099 2.973,-0.608 l 0,-1.884 c -0.191,0.153 -0.871,0.519 -1.75,0.709 -0.498,0.11 -2.04,0.208 -2.745,-0.927 -0.293,-0.469 -0.566,-1.338 0.072,-2.357 0.212,-0.341 1.182,-0.786 1.659,-0.786 0.465,0 1.414,-0.179 2.802,0.763 m -24.713328,4.9637002 2.074,0 2.236,-2.865 2.239,2.865 2.163,0 0,-7.386 -2.288,0 0,4.307 -2.171,-2.61999996 -2.068,2.61999996 0,-4.307 -2.185,0 0,7.386 z m -3.317666,0.0186 2.227957,0 0,-7.3859998 -2.227957,0 0,7.3859998 z"
               style="fill:#d52027;fill-opacity:1;fill-rule:nonzero;stroke:none"
               id="path5232" />
          </g>
        </g>
      </g>
      <g
         id="g8377">
        <g
           id="g5234"
           transform="matrix(44.594025,0,0,-44.594025,1728.3525,65.442231)">
          <path
             d="m 0,0 0,5.69 3.08,3.055 2.721,0 0,0.942 1.484,0 0,-0.942 2.68,0 3.08,-3.055 0,-5.69 L 0,0 Z"
             style="fill:#100f10;fill-opacity:1;fill-rule:nonzero;stroke:none"
             id="path5236"
             inkscape:connector-curvature="0" />
        </g>
        <g
           id="g5242"
           transform="matrix(44.594025,0,0,-44.594025,1941.0577,-277.05308)">
          <path
             d="m 0,0 2.322,-2.312 4.867,0 L 4.779,0 0,0 Z"
             style="fill:#2981c4;fill-opacity:1;fill-rule:nonzero;stroke:none"
             id="path5244"
             inkscape:connector-curvature="0" />
        </g>
        <g
           id="g5246"
           transform="matrix(44.594025,0,0,-44.594025,1778.7615,8.2501855)">
          <path
             d="M 0,0 4.841,0 4.847,3.002 -0.005,3.003 0,0 Z"
             style="fill:#e32329;fill-opacity:1;fill-rule:nonzero;stroke:none"
             id="path5248"
             inkscape:connector-curvature="0" />
        </g>
        <g
           id="g5250"
           transform="matrix(44.594025,0,0,-44.594025,2042.4793,-125.808)">
          <path
             d="m 0,0 0,-2.996 4.891,0 0,2.995 L 0,0 Z"
             style="fill:#ffffff;fill-opacity:1;fill-rule:nonzero;stroke:none"
             id="path5252"
             inkscape:connector-curvature="0" />
        </g>
        <g
           id="g5254"
           transform="matrix(44.594025,0,0,-44.594025,1778.3508,-173.34486)">
          <path
             d="M 0,0 4.557,0 2.288,2.267 0,0 Z"
             style="fill:#f9ed25;fill-opacity:1;fill-rule:nonzero;stroke:none"
             id="path5256"
             inkscape:connector-curvature="0" />
        </g>
      </g>
    </g>
  </g>
</svg>
