<?xml version="1.0" encoding="utf-8"?>
<!-- Generator: Adobe Illustrator 17.0.0, SVG Export Plug-In . SVG Version: 6.00 Build 0)  -->
<!DOCTYPE svg PUBLIC "-//W3C//DTD SVG 1.1//EN" "http://www.w3.org/Graphics/SVG/1.1/DTD/svg11.dtd">
<svg version="1.1" id="Layer_1" xmlns="http://www.w3.org/2000/svg" xmlns:xlink="http://www.w3.org/1999/xlink" x="0px" y="0px"
	 width="264.83px" height="264.83px" viewBox="0.002 -81.332 264.83 264.83" enable-background="new 0.002 -81.332 264.83 264.83"
	 xml:space="preserve">
<g>
	<rect x="0.002" y="-25.667" fill="#FFFFFF" width="262.914" height="101.833"/>
	<g>
		<path fill="#EB1C2D" d="M96.731,23.131c0,1.361-0.349,2.54-1.044,3.535c-0.697,0.995-1.668,1.757-2.915,2.286
			c-1.246,0.529-2.676,0.794-4.289,0.794c-0.45,0-1.002-0.028-1.657-0.086c-0.654-0.057-1.524-0.217-2.608-0.479
			c-1.083-0.261-2.213-0.649-3.386-1.163v-5.342c1.1,0.68,2.181,1.246,3.245,1.696c1.063,0.45,2.202,0.676,3.417,0.676
			c1.121,0,1.846-0.186,2.176-0.557c0.33-0.372,0.494-0.72,0.494-1.045c0-0.587-0.283-1.081-0.848-1.485
			c-0.565-0.403-1.388-0.819-2.467-1.249c-1.194-0.503-2.242-1.05-3.142-1.642s-1.636-1.333-2.208-2.224
			c-0.571-0.89-0.856-1.943-0.856-3.158c0-1.173,0.287-2.234,0.864-3.183c0.576-0.948,1.456-1.705,2.639-2.27
			c1.184-0.566,2.629-0.848,4.336-0.848c1.215,0,2.339,0.117,3.37,0.354c1.031,0.235,1.883,0.5,2.553,0.794
			c0.671,0.294,1.131,0.524,1.383,0.691v5.105c-0.891-0.639-1.883-1.209-2.978-1.713c-1.094-0.503-2.265-0.754-3.511-0.754
			c-0.817,0-1.409,0.157-1.776,0.472c-0.367,0.314-0.55,0.702-0.55,1.163c0,0.43,0.183,0.802,0.55,1.116
			c0.367,0.314,1.022,0.697,1.964,1.147c1.676,0.785,3.017,1.492,4.023,2.12c1.005,0.629,1.794,1.354,2.364,2.176
			C96.445,20.881,96.731,21.905,96.731,23.131"/>
		<path fill="#EB1C2D" d="M116.884,18.758c0-0.802-0.118-1.535-0.355-2.199c-0.236-0.663-0.594-1.239-1.073-1.728
			c-0.478-0.488-1.061-0.869-1.75-1.142c-0.69-0.272-1.487-0.409-2.392-0.409c-1.728,0-3.087,0.504-4.074,1.512
			c-0.987,1.008-1.482,2.331-1.482,3.965s0.496,2.961,1.489,3.973c0.993,1.013,2.348,1.52,4.066,1.52
			c1.183,0,2.191-0.234,3.025-0.702c0.833-0.468,1.465-1.116,1.898-1.944C116.669,20.777,116.884,19.829,116.884,18.758
			 M123.458,18.758c0,1.996-0.46,3.832-1.381,5.508c-0.92,1.677-2.291,3.009-4.112,3.997c-1.821,0.988-4.038,1.482-6.65,1.482
			c-2.644,0-4.882-0.514-6.712-1.543c-1.831-1.028-3.192-2.382-4.082-4.058c-0.89-1.676-1.335-3.472-1.335-5.386
			c0-1.924,0.442-3.721,1.327-5.394c0.885-1.672,2.246-3.019,4.082-4.043c1.836-1.024,4.076-1.535,6.72-1.535
			c1.975,0,3.737,0.293,5.285,0.879c1.548,0.586,2.821,1.381,3.819,2.383c0.998,1.003,1.754,2.172,2.268,3.503
			C123.201,15.885,123.458,17.287,123.458,18.758"/>
		<path fill="#EB1C2D" d="M141.738,18.882c0-1.739-0.332-3.094-0.995-4.066c-0.663-0.972-1.461-1.622-2.392-1.952
			c-0.931-0.329-1.88-0.494-2.847-0.494h-2.746v12.669h2.746c1.687,0,3.148-0.402,4.383-1.204
			C141.12,23.033,141.738,21.381,141.738,18.882 M148.295,19.159c0,2.191-0.398,3.95-1.196,5.278
			c-0.797,1.328-1.736,2.402-2.816,3.225c-1.533,1.204-3.678,1.805-6.434,1.805h-0.324h-11.218V8.079h8.888
			c1.337,0,2.482,0.069,3.434,0.208c0.952,0.139,1.808,0.334,2.569,0.586c0.761,0.253,1.409,0.535,1.944,0.849
			c0.535,0.314,1.013,0.651,1.435,1.011c0.731,0.597,1.37,1.301,1.921,2.113c0.55,0.813,0.988,1.754,1.312,2.824
			C148.134,16.743,148.295,17.904,148.295,19.159"/>
		<rect x="150.932" y="8.079" fill="#EB1C2D" width="6.45" height="21.387"/>
		<polygon fill="#EB1C2D" points="185.331,29.467 178.881,29.467 178.881,17.075 173.062,24.251 172.553,24.251 166.72,17.075 
			166.72,29.467 160.455,29.467 160.455,8.079 166.304,8.079 172.877,16.104 179.482,8.079 185.331,8.079 		"/>
		<path fill="#EB1C2D" d="M202.906,21.412l-3.132-7.808l-3.164,7.808H202.906z M212.735,29.467h-6.605l-1.743-4.336h-9.289
			l-1.774,4.336h-6.604l9.459-21.387h7.13L212.735,29.467z"/>
		<path fill="#EB1C2D" d="M232.431,27.862c-0.884,0.463-1.79,0.833-2.716,1.111c-0.926,0.278-1.859,0.476-2.801,0.594
			c-0.942,0.118-1.916,0.178-2.924,0.178c-1.862,0-3.531-0.257-5.008-0.772c-1.476-0.514-2.757-1.273-3.842-2.276
			c-1.085-1.002-1.898-2.176-2.438-3.519c-0.539-1.342-0.81-2.816-0.81-4.421c0-1.842,0.318-3.454,0.957-4.838
			c0.638-1.383,1.53-2.532,2.678-3.449c1.147-0.916,2.453-1.592,3.92-2.029c1.466-0.437,3.012-0.656,4.637-0.656
			c2.428,0,5.18,0.54,8.256,1.62v5.679c-1.06-0.658-2.106-1.206-3.14-1.643c-1.034-0.437-2.251-0.656-3.649-0.656
			c-1.245,0-2.408,0.246-3.488,0.741c-1.08,0.494-1.95,1.199-2.608,2.114c-0.658,0.916-0.987,1.986-0.987,3.209
			c0,1.08,0.287,2.071,0.864,2.97c0.576,0.901,1.376,1.616,2.399,2.145c1.023,0.53,2.178,0.794,3.464,0.794
			c1.039,0,2.021-0.126,2.947-0.378c0.925-0.252,1.705-0.532,2.338-0.841c0.633-0.309,1.283-0.674,1.952-1.096L232.431,27.862
			L232.431,27.862z"/>
		<path fill="#EB1C2D" d="M236.832,25.632v0.9h0.434c0.251,0,0.425-0.035,0.529-0.105c0.106-0.068,0.161-0.18,0.161-0.33
			c0-0.167-0.054-0.29-0.164-0.362c-0.117-0.074-0.3-0.104-0.545-0.104L236.832,25.632L236.832,25.632z M236.408,25.295h0.84
			c0.38,0,0.665,0.062,0.849,0.19c0.199,0.123,0.296,0.309,0.296,0.558c0,0.194-0.064,0.357-0.169,0.488
			c-0.109,0.127-0.258,0.207-0.456,0.236l0.605,1.248h-0.472l-0.543-1.199h-0.525v1.199h-0.425L236.408,25.295L236.408,25.295z"/>
		<path fill="#EB1C2D" d="M237.279,24.499c-0.341,0-0.672,0.076-0.957,0.22c-0.296,0.142-0.553,0.35-0.766,0.622
			c-0.154,0.194-0.268,0.411-0.35,0.643c-0.076,0.227-0.116,0.462-0.116,0.711c0,0.289,0.057,0.568,0.158,0.843
			c0.113,0.258,0.275,0.496,0.48,0.697c0.212,0.211,0.454,0.379,0.718,0.494c0.534,0.221,1.113,0.224,1.665,0
			c0.272-0.113,0.517-0.27,0.724-0.476c0.222-0.202,0.375-0.431,0.484-0.702c0.106-0.266,0.165-0.557,0.165-0.857
			c0-0.283-0.054-0.566-0.165-0.831c-0.106-0.266-0.263-0.5-0.469-0.709c-0.207-0.213-0.447-0.377-0.714-0.486
			C237.87,24.556,237.578,24.499,237.279,24.499 M237.279,29.305c-0.339,0-0.665-0.065-0.991-0.2
			c-0.315-0.139-0.601-0.336-0.846-0.576c-0.241-0.25-0.433-0.527-0.559-0.842c-0.136-0.322-0.197-0.652-0.197-0.991
			c0-0.292,0.045-0.572,0.139-0.845c0.091-0.278,0.234-0.53,0.416-0.76c0.253-0.322,0.55-0.568,0.901-0.734
			c0.642-0.318,1.461-0.348,2.149-0.062c0.316,0.132,0.601,0.322,0.841,0.58c0.251,0.236,0.434,0.523,0.564,0.837
			c0.129,0.315,0.195,0.648,0.195,0.983c0,0.353-0.072,0.693-0.198,1.012c-0.134,0.322-0.333,0.601-0.573,0.833
			c-0.245,0.241-0.535,0.431-0.853,0.565C237.948,29.241,237.617,29.305,237.279,29.305"/>
		<polygon fill="#0071B9" points="50.229,52.878 45.021,52.878 45.021,46.125 37.172,46.125 37.172,52.878 31.95,52.878 
			31.95,35.575 37.172,35.575 37.172,41.93 45.021,41.93 45.021,35.575 50.229,35.575 		"/>
		<path fill="#0071B9" d="M67.706,44.214c0-0.649-0.097-1.242-0.288-1.778c-0.191-0.537-0.482-1.002-0.868-1.399
			c-0.386-0.396-0.861-0.701-1.418-0.924c-0.557-0.223-1.203-0.33-1.934-0.33c-1.401,0-2.497,0.405-3.298,1.224
			c-0.797,0.816-1.2,1.884-1.2,3.207c0,1.323,0.405,2.397,1.206,3.216c0.804,0.82,1.9,1.231,3.291,1.231
			c0.959,0,1.773-0.191,2.446-0.568c0.674-0.38,1.187-0.905,1.535-1.572C67.528,45.848,67.706,45.082,67.706,44.214 M73.025,44.214
			c0,1.616-0.375,3.102-1.12,4.457c-0.744,1.357-1.853,2.434-3.327,3.235c-1.471,0.798-3.267,1.198-5.379,1.198
			c-2.138,0-3.948-0.417-5.432-1.248c-1.482-0.831-2.58-1.927-3.301-3.285c-0.72-1.357-1.079-2.809-1.079-4.357
			c0-1.555,0.358-3.01,1.073-4.362c0.717-1.352,1.82-2.445,3.301-3.272c1.487-0.828,3.301-1.242,5.439-1.242
			c1.598,0,3.023,0.236,4.277,0.712c1.253,0.474,2.283,1.116,3.09,1.929c0.808,0.811,1.417,1.756,1.837,2.834
			C72.813,41.891,73.025,43.025,73.025,44.214"/>
		<polygon fill="#0071B9" points="96.75,52.878 91.531,52.878 91.531,42.854 86.823,48.661 86.41,48.661 81.691,42.854 
			81.691,52.878 76.624,52.878 76.624,35.575 81.356,35.575 86.671,42.07 92.013,35.575 96.75,35.575 		"/>
		<polygon fill="#0071B9" points="114.377,52.878 101.33,52.878 101.33,35.575 114.163,35.575 114.163,39.047 106.548,39.047 
			106.548,42.218 113.814,42.218 113.814,45.7 106.548,45.7 106.548,49.396 114.377,49.396 		"/>
		<path fill="#0071B9" d="M134.144,51.581c-0.718,0.376-1.448,0.676-2.198,0.898c-0.75,0.224-1.502,0.389-2.265,0.483
			c-0.761,0.094-1.548,0.142-2.366,0.142c-1.508,0-2.855-0.208-4.052-0.624c-1.194-0.416-2.229-1.031-3.107-1.839
			c-0.879-0.811-1.539-1.763-1.974-2.848c-0.435-1.087-0.657-2.278-0.657-3.578c0-1.49,0.258-2.795,0.777-3.913
			c0.513-1.119,1.237-2.05,2.165-2.79c0.928-0.741,1.984-1.289,3.17-1.642c1.187-0.355,2.437-0.531,3.753-0.531
			c1.964,0,4.186,0.436,6.676,1.309v4.596c-0.855-0.532-1.702-0.978-2.538-1.329c-0.838-0.355-1.824-0.529-2.957-0.529
			c-1.005,0-1.947,0.199-2.819,0.596c-0.875,0.401-1.579,0.968-2.112,1.711c-0.536,0.742-0.801,1.606-0.801,2.598
			c0,0.873,0.235,1.674,0.7,2.402c0.465,0.729,1.113,1.306,1.941,1.735c0.828,0.429,1.763,0.644,2.805,0.644
			c0.838,0,1.635-0.102,2.383-0.307c0.747-0.205,1.381-0.432,1.89-0.68c0.513-0.25,1.039-0.546,1.582-0.888L134.144,51.581
			L134.144,51.581z"/>
		<polygon fill="#0071B9" points="151.192,52.878 138.145,52.878 138.145,35.575 150.981,35.575 150.981,39.047 143.367,39.047 
			143.367,42.218 150.63,42.218 150.63,45.7 143.367,45.7 143.367,49.396 151.192,49.396 		"/>
		<polygon fill="#0071B9" points="173.69,52.878 169.045,52.878 160.067,43.24 160.067,52.878 154.899,52.878 154.899,35.575 
			159.53,35.575 168.482,45.163 168.482,35.575 173.69,35.575 		"/>
		<polygon fill="#0071B9" points="195.189,39.785 188.845,39.785 188.845,52.879 183.643,52.879 183.643,39.785 177.299,39.785 
			177.299,35.575 195.189,35.575 		"/>
		<polygon fill="#0071B9" points="212.067,52.878 199.019,52.878 199.019,35.575 211.855,35.575 211.855,39.047 204.237,39.047 
			204.237,42.218 211.503,42.218 211.503,45.7 204.237,45.7 204.237,49.396 212.067,49.396 		"/>
		<path fill="#0071B9" d="M225.723,41.044c0-0.8-0.265-1.357-0.791-1.672c-0.523-0.315-1.373-0.476-2.557-0.476h-1.096v4.172h1.119
			c1.277,0,2.145-0.139,2.617-0.418C225.489,42.37,225.723,41.837,225.723,41.044 M232.811,52.878h-5.604l-1.361-3.069
			c-0.499-1.124-0.952-1.943-1.351-2.463c-0.399-0.523-0.787-0.854-1.163-0.998c-0.381-0.15-0.871-0.222-1.471-0.222h-0.583v6.753
			h-5.221V35.575h8.874c1.434,0,2.608,0.292,3.522,0.875c0.919,0.583,1.575,1.291,1.981,2.121c0.402,0.831,0.603,1.626,0.603,2.372
			c0,0.875-0.169,1.611-0.506,2.216c-0.335,0.602-0.694,1.042-1.065,1.317c-0.375,0.273-0.794,0.538-1.264,0.787
			c0.559,0.325,1.018,0.71,1.381,1.154c0.362,0.447,0.858,1.346,1.482,2.703L232.811,52.878z"/>
		<polygon points="64.42,0.452 56.405,0.452 56.405,-2.604 53.349,-2.604 50.295,-2.604 50.295,0.452 42.319,0.452 31.969,12.29 
			31.969,29.469 74.724,29.469 74.724,12.29 		"/>
		<rect x="35.022" y="15.348" fill="#EB1C2D" width="16.797" height="11.067"/>
		<rect x="54.873" y="15.348" fill="#FFFFFF" width="16.799" height="11.067"/>
		<polygon fill="#0071B9" points="70.916,12.272 63.248,3.477 47.215,3.476 54.913,12.272 		"/>
		<polygon fill="#FEDF00" points="51.066,12.283 43.547,3.454 35.824,12.283 		"/>
	</g>
</g>
</svg>
